<svg xmlns="http://www.w3.org/2000/svg">

  <!-- UI icons (Lucide-style, stroke-based) -->
  <symbol id="close-icon" viewBox="0 0 24 24">
    <line stroke="currentColor" stroke-width="2.5" stroke-linecap="round" x1="18" y1="6" x2="6" y2="18"/>
    <line stroke="currentColor" stroke-width="2.5" stroke-linecap="round" x1="6" y1="6" x2="18" y2="18"/>
  </symbol>
  <symbol id="hamburger-icon" viewBox="0 0 20 20">
    <rect fill="currentColor" x="2" y="4" width="16" height="2" rx="1"/>
    <rect fill="currentColor" x="2" y="9" width="16" height="2" rx="1"/>
    <rect fill="currentColor" x="2" y="14" width="16" height="2" rx="1"/>
  </symbol>
  <symbol id="chevron-down-icon" viewBox="0 0 24 24">
    <polyline fill="none" stroke="currentColor" stroke-width="2.5" stroke-linecap="round" stroke-linejoin="round" points="6 9 12 15 18 9"/>
  </symbol>
  <symbol id="chevron-right-icon" viewBox="0 0 24 24">
    <polyline fill="none" stroke="currentColor" stroke-width="2.5" stroke-linecap="round" stroke-linejoin="round" points="9 18 15 12 9 6"/>
  </symbol>
  <symbol id="chevron-left-icon" viewBox="0 0 24 24">
    <polyline fill="none" stroke="currentColor" stroke-width="2.5" stroke-linecap="round" stroke-linejoin="round" points="15 18 9 12 15 6"/>
  </symbol>
  <symbol id="search-icon" viewBox="0 0 24 24">
    <circle fill="none" stroke="currentColor" stroke-width="2.5" stroke-linecap="round" cx="11" cy="11" r="8"/>
    <line stroke="currentColor" stroke-width="2.5" stroke-linecap="round" x1="21" y1="21" x2="16.65" y2="16.65"/>
  </symbol>
  <symbol id="share-icon" viewBox="0 0 24 24">
    <circle fill="none" stroke="currentColor" stroke-width="2" cx="18" cy="5" r="3"/>
    <circle fill="none" stroke="currentColor" stroke-width="2" cx="6" cy="12" r="3"/>
    <circle fill="none" stroke="currentColor" stroke-width="2" cx="18" cy="19" r="3"/>
    <line stroke="currentColor" stroke-width="2" stroke-linecap="round" x1="8.59" y1="13.51" x2="15.42" y2="17.49"/>
    <line stroke="currentColor" stroke-width="2" stroke-linecap="round" x1="15.41" y1="6.51" x2="8.59" y2="10.49"/>
  </symbol>
  <symbol id="copy-icon" viewBox="0 0 24 24">
    <rect fill="none" stroke="currentColor" stroke-width="2" stroke-linecap="round" stroke-linejoin="round" x="9" y="9" width="13" height="13" rx="2" ry="2"/>
    <path fill="none" stroke="currentColor" stroke-width="2" stroke-linecap="round" stroke-linejoin="round" d="M5 15H4a2 2 0 0 1-2-2V4a2 2 0 0 1 2-2h9a2 2 0 0 1 2 2v1"/>
  </symbol>
  <symbol id="check-icon" viewBox="0 0 24 24">
    <polyline fill="none" stroke="currentColor" stroke-width="2.5" stroke-linecap="round" stroke-linejoin="round" points="20 6 9 17 4 12"/>
  </symbol>
  <symbol id="github-logo-icon" viewBox="0 0 32.58 31.77">
    <path fill="currentColor" fill-rule="evenodd" d="M16.29,0a16.29,16.29,0,0,0-5.15,31.75c.82.15,1.11-.36,1.11-.79s0-1.41,0-2.77C7.7,29.18,6.74,26,6.74,26a4.36,4.36,0,0,0-1.81-2.39c-1.47-1,.12-1,.12-1a3.43,3.43,0,0,1,2.49,1.68,3.48,3.48,0,0,0,4.74,1.36,3.46,3.46,0,0,1,1-2.18c-3.62-.41-7.42-1.81-7.42-8a6.3,6.3,0,0,1,1.67-4.37,5.94,5.94,0,0,1,.16-4.31s1.37-.44,4.48,1.67a15.41,15.41,0,0,1,8.16,0c3.11-2.11,4.47-1.67,4.47-1.67A5.91,5.91,0,0,1,25,11.07a6.3,6.3,0,0,1,1.67,4.37c0,6.26-3.81,7.63-7.44,8a3.85,3.85,0,0,1,1.11,3c0,2.18,0,3.94,0,4.47s.29.94,1.12.78A16.29,16.29,0,0,0,16.29,0Z"/>
  </symbol>

  <symbol id="download-icon" viewBox="0 0 24 24">
    <path fill="none" stroke="currentColor" stroke-width="2" stroke-linecap="round" stroke-linejoin="round" d="M21 15v4a2 2 0 0 1-2 2H5a2 2 0 0 1-2-2v-4"/>
    <polyline fill="none" stroke="currentColor" stroke-width="2" stroke-linecap="round" stroke-linejoin="round" points="7 10 12 15 17 10"/>
    <line stroke="currentColor" stroke-width="2" stroke-linecap="round" x1="12" y1="15" x2="12" y2="3"/>
  </symbol>

  <symbol id="globe-icon" viewBox="0 0 24 24">
    <circle fill="none" stroke="currentColor" stroke-width="2" stroke-linecap="round" cx="12" cy="12" r="10"/>
    <line stroke="currentColor" stroke-width="2" stroke-linecap="round" x1="2" y1="12" x2="22" y2="12"/>
    <path fill="none" stroke="currentColor" stroke-width="2" stroke-linecap="round" d="M12 2a15.3 15.3 0 0 1 4 10 15.3 15.3 0 0 1-4 10 15.3 15.3 0 0 1-4-10 15.3 15.3 0 0 1 4-10z"/>
  </symbol>

</svg>
