<?xml version="1.0" encoding="UTF-8" standalone="no"?>
<!-- Created with Inkscape (http://www.inkscape.org/) -->

<svg
   version="1.1"
   id="svg2"
   width="128"
   height="128"
   viewBox="0 0 128 128"
   sodipodi:docname="logo.svg"
   xml:space="preserve"
   inkscape:version="1.2.2 (b0a8486541, 2022-12-01)"
   xmlns:inkscape="http://www.inkscape.org/namespaces/inkscape"
   xmlns:sodipodi="http://sodipodi.sourceforge.net/DTD/sodipodi-0.dtd"
   xmlns="http://www.w3.org/2000/svg"
   xmlns:svg="http://www.w3.org/2000/svg"><defs
     id="defs6" /><sodipodi:namedview
     id="namedview4"
     pagecolor="#ffffff"
     bordercolor="#000000"
     borderopacity="0.25"
     inkscape:showpageshadow="2"
     inkscape:pageopacity="0.0"
     inkscape:pagecheckerboard="0"
     inkscape:deskcolor="#d1d1d1"
     showgrid="false"
     inkscape:zoom="6.578125"
     inkscape:cx="52.826603"
     inkscape:cy="66.812351"
     inkscape:window-width="1854"
     inkscape:window-height="1011"
     inkscape:window-x="1346"
     inkscape:window-y="345"
     inkscape:window-maximized="1"
     inkscape:current-layer="g8" /><g
     inkscape:groupmode="layer"
     inkscape:label="Image"
     id="g8"
     transform="translate(-5.7551651,-1.8329163)"><g
       class="st0"
       id="g1435"
       transform="matrix(0.61676949,0,0,0.61676949,-5.435004,39.968945)">
	<g
   id="g3803"
   transform="matrix(0.96487037,0,0,0.96487037,4.2807288,1.4745563)" />
</g><g
       id="g2896"><circle
         style="fill:#0c7fa2;fill-opacity:1;fill-rule:evenodd;stroke:#86cfda;stroke-width:8.00037;stroke-dasharray:none;stroke-dashoffset:0;stroke-opacity:1"
         id="path291"
         cx="79.508301"
         cy="53.648727"
         r="59.999817"
         transform="rotate(9.3332713)" /><path
         id="circle2024"
         style="fill:#228c3a;fill-rule:evenodd;stroke-width:7.52454"
         d="m 88.753411,47.994844 c 2.020113,4.428912 -0.596394,10.649667 -6.126126,8.985423 -4.179267,-1.817184 -8.663933,3.184156 -3.909158,5.981243 2.727644,2.303968 7.535311,3.681065 7.551081,7.938853 -0.270021,3.6905 -6.256677,5.87286 -3.92978,9.859843 2.864104,2.904138 7.960405,1.898661 11.026713,-0.176823 4.974742,-3.450256 3.929887,-10.135696 3.397324,-15.326011 -0.754288,-4.901537 -0.803355,-9.961797 0.863653,-14.692782 1.304574,-3.902241 1.387334,-10.337831 -4.101652,-11.106505 -5.488985,-0.768674 -6.30919,5.200671 -4.772055,8.536759 z"
         sodipodi:nodetypes="cccccccccc" /><path
         id="path2244"
         style="fill:#228c3a;fill-rule:evenodd;stroke-width:7.52454"
         d="m 60.294028,121.09458 c 3.719898,-4.82279 10.266442,-7.3654 14.46947,-11.62072 4.139032,-5.57735 -1.117068,-14.848198 -8.194785,-13.189744 -5.775799,1.44025 -11.569807,-0.37563 -16.498582,-3.975272 -6.31936,-4.615232 0.784321,-8.96248 -0.402938,-13.631192 C 44.736768,73.856706 36.677527,75.883823 30.413673,73.658916 24.218057,71.458247 18.803788,66.66348 13.731993,64.004089 12.99628,96.328643 38.490767,117.82055 60.294028,121.09458 Z"
         sodipodi:nodetypes="cccscscc" /><path
         id="path2242"
         style="fill:#228c3a;fill-rule:evenodd;stroke-width:7.52454"
         d="m 101.27969,19.72394 c -2.087362,4.096114 -0.37857,8.787685 0.55553,13.064468 0.46172,7.100746 5.41324,13.204971 5.00467,20.401214 -0.79838,3.077229 -2.48847,7.286187 0.93508,9.473054 3.73867,3.098315 9.67007,4.331327 13.93073,1.633159 3.44685,-2.149736 4.32248,-4.788926 3.39597,-9.541747 C 122.31272,40.811552 112.93049,27.900336 101.27969,19.72394 Z"
         sodipodi:nodetypes="ccccccc" /><g
         id="g2886"><circle
           style="fill:#ffffff;fill-opacity:1;fill-rule:evenodd;stroke:none;stroke-width:11.5046;stroke-dasharray:none;stroke-dashoffset:0;stroke-opacity:1"
           id="path3310"
           cx="25.427399"
           cy="48.754295"
           r="3.6557951" /><path
           style="fill:#ffffff;fill-opacity:1;fill-rule:evenodd;stroke:none;stroke-width:1.95904;stroke-dasharray:none;stroke-dashoffset:0;stroke-opacity:1"
           d="m 24.492982,42.174757 c -2.38557,-0.963896 -4.04222,-4.294375 -2.27228,-6.507624 4.22602,-7.34564 10.58369,-13.305258 17.6541,-17.882864 8.46261,-5.224665 18.43999,-7.9167189 28.37669,-7.7860819 2.47548,-1.105992 2.95207,2.2130189 1.69184,3.6496789 -1.2749,2.581595 -4.32821,3.693815 -7.06723,3.447001 -3.62473,0.08805 -7.70497,-0.517658 -10.82015,1.762506 -1.71611,1.726343 -3.49749,4.832753 -6.37392,3.51022 -2.26047,-0.847534 -4.95102,1.303242 -3.05247,3.365424 0.40384,2.837698 -2.7507,3.596714 -4.87455,3.272853 -3.05415,0.645677 -5.54518,3.627223 -5.19106,6.80943 -0.11406,2.832792 -1.61327,6.179749 -4.72785,6.63633 -1.1136,0.204672 -2.27411,0.08358 -3.34312,-0.276873 z"
           id="path3799" /></g><path
         style="color:#000000;fill:#000000;fill-opacity:0.206176;fill-rule:evenodd;-inkscape-stroke:none"
         d="m 104.67968,21.824219 c 13.9877,22.828339 13.97664,29.445148 14.23242,44.007812 0,27.190592 -21.965658,49.158199 -49.156248,49.158199 -21.53443,0 -39.78321,-13.81421 -46.45313,-33.033199 -3.29334,-9.082076 -9.170723,-8.042766 -6.634761,2.302735 7.630761,21.987614 28.547541,37.753904 53.087891,37.753904 30.986028,0 56.179688,-25.195598 56.179688,-56.181639 0,-17.805588 -8.30646,-33.718958 -21.25586,-44.007812 z"
         id="circle1526"
         sodipodi:nodetypes="ccsccssc" /></g></g><style
     type="text/css"
     id="style1431">
	.st0{enable-background:new    ;}
</style></svg>
